<svg xmlns="http://www.w3.org/2000/svg" width="201.263" height="46.133" viewBox="0 0 201.263 46.133">
  <g id="Group_4" data-name="Group 4" transform="translate(-859 -2962)">
    <path id="Icon_awesome-facebook" data-name="Icon awesome-facebook" d="M44.461,22.512A21.949,21.949,0,1,0,19.082,44.2V28.857H13.506V22.512h5.576V17.676c0-5.5,3.275-8.539,8.29-8.539a33.779,33.779,0,0,1,4.914.428v5.4H29.518c-2.726,0-3.576,1.692-3.576,3.428v4.12h6.087l-.974,6.345H25.941V44.2A21.957,21.957,0,0,0,44.461,22.512Z" transform="translate(858.438 2961.438)" fill="#e9ddc7"/>
    <g id="Icon_feather-instagram" data-name="Icon feather-instagram" transform="translate(938 2965)">
      <path id="Path_174" data-name="Path 174" d="M13.158,3H33.475A10.158,10.158,0,0,1,43.633,13.158V33.475A10.158,10.158,0,0,1,33.475,43.633H13.158A10.158,10.158,0,0,1,3,33.475V13.158A10.158,10.158,0,0,1,13.158,3Z" transform="translate(-3 -3)" fill="none" stroke="#e7ddc9" stroke-linecap="round" stroke-linejoin="round" stroke-width="5"/>
      <path id="Path_175" data-name="Path 175" d="M28.23,18.87a8.127,8.127,0,1,1-6.847-6.847A8.127,8.127,0,0,1,28.23,18.87Z" transform="translate(0.213 0.167)" fill="none" stroke="#e7ddc9" stroke-linecap="round" stroke-linejoin="round" stroke-width="5"/>
      <path id="Path_176" data-name="Path 176" d="M26.25,9.75h0" transform="translate(5.241 -0.608)" fill="none" stroke="#e7ddc9" stroke-linecap="round" stroke-linejoin="round" stroke-width="5"/>
    </g>
    <path id="Icon_zocial-email" data-name="Icon zocial-email" d="M.072,34.376V7.013q0-.048.143-.9l16.1,13.776L.262,35.326a4.026,4.026,0,0,1-.19-.95ZM2.21,4.211a2.047,2.047,0,0,1,.808-.143H46.389a2.69,2.69,0,0,1,.855.143L31.093,18.034l-2.138,1.71-4.228,3.468L20.5,19.745l-2.138-1.71Zm.048,32.968,16.2-15.534,6.271,5.083L31,21.645,47.2,37.179a2.281,2.281,0,0,1-.808.143H3.017a2.152,2.152,0,0,1-.76-.143ZM33.135,19.887,49.192,6.111a2.835,2.835,0,0,1,.143.9V34.376a3.641,3.641,0,0,1-.143.95Z" transform="translate(1010.928 2963.932)" fill="#e9ddc7"/>
  </g>
</svg>
